<?xml version="1.0" encoding="UTF-8"?>
<svg id="Layer_1" data-name="Layer 1" xmlns="http://www.w3.org/2000/svg" version="1.1" viewBox="0 0 1024 1024">
  <defs>
    <style>
      .cls-1 {
        fill: #f1af60;
        stroke-width: 0px;
      }
    </style>
  </defs>
  <path class="cls-1" d="M597.3,451.7l55.2-55.2c16.9-16.4,44-15.9,60.3,1,16,16.5,16,42.7,0,59.3l-55.2,55.2,55.2,55.2c16.4,16.9,15.9,44-1,60.3-16.5,16-42.7,16-59.3,0l-55.2-55.2-55.2,55.2c-16.9,16.4-44,15.9-60.3-1-16-16.5-16-42.7,0-59.3l55.2-55.2-55.2-55.2c-16.4-16.9-15.9-44,1-60.3,16.5-16,42.7-16,59.3,0l55.2,55.2ZM874.6,832h-498.3c-47.4,0-106.7-25.9-138.8-60.7l-163.2-176.9c-42.3-45.9-42.3-118.9,0-164.8l163.2-176.9c31.9-34.6,91.5-60.7,138.7-60.7h498.2c58.9,0,106.7,47.6,106.8,106.6,0,0,0,.2,0,.3v426.3c0,59-47.7,106.8-106.7,106.8,0,0,0,0,0,0ZM874.6,746.7c11.8,0,21.4-9.6,21.4-21.5v-426.3c0-11.9-9.5-21.5-21.4-21.5h-498.3c-23.5,0-60.2,16.1-76,33.2l-163.2,176.9c-12.2,13.2-12.2,35.9,0,49.1l163.2,176.9c15.9,17.2,52.4,33.2,76,33.2h498.3Z"/>
</svg>