<?xml version="1.0" encoding="UTF-8"?>
<svg id="Layer_1" data-name="Layer 1" xmlns="http://www.w3.org/2000/svg" version="1.1" viewBox="0 0 1024 1024">
  <defs>
    <style>
      .cls-1 {
        fill: #f1af60;
        stroke-width: 0px;
      }
    </style>
  </defs>
  <path class="cls-1" d="M1008,511.1c.5,273.3-222.4,496.7-495.6,496.9-118,0-226.4-41.1-311.6-109.8-22.2-17.9-23.8-51.1-3.7-71.2l22.5-22.5c17.2-17.2,44.7-19.1,63.8-4,62.8,49.8,142.2,79.5,228.6,79.5,203.4,0,368-164.6,368-368s-164.6-368-368-368-186.3,37.9-252.1,99.9l101.5,101.5c20.2,20.2,5.9,54.6-22.6,54.6H48c-17.7,0-32-14.3-32-32V77.3c0-28.5,34.5-42.8,54.6-22.6l98.7,98.7C258.4,68.3,379.1,16,512,16c273.6,0,495.5,221.6,496,495.1ZM646.2,668.6l19.6-25.3c16.3-20.9,12.5-51.1-8.4-67.4l-81.4-63.3v-208.7c0-26.5-21.5-48-48-48h-32c-26.5,0-48,21.5-48,48v271.3l130.8,101.7c20.9,16.3,51.1,12.5,67.4-8.4Z"/>
</svg>